<svg width="180" height="58" viewBox="0 0 180 58" fill="none" xmlns="http://www.w3.org/2000/svg">
<g clip-path="url(#clip0_556_2114)">
<path d="M46.2126 20.7221V20.6346C46.2126 13.9387 51.6043 8.50594 58.8635 8.50594C66.1227 8.50594 71.4269 13.8539 71.4269 20.5471V20.6346C71.4269 27.3306 66.0379 32.7633 58.776 32.7633C51.5141 32.7633 46.2126 27.4153 46.2126 20.7221ZM64.906 20.7221V20.6346C64.906 17.2005 62.4288 14.2012 58.776 14.2012C55.1232 14.2012 52.7335 17.113 52.7335 20.5471V20.6346C52.7335 24.0687 55.2107 27.0681 58.8635 27.0681C62.5163 27.0681 64.906 24.1562 64.906 20.7221Z" fill="#006A4E"/>
<path d="M45.0315 8.89418H42.5735C36.3396 8.89418 31.2841 13.9496 31.2841 20.1835V32.1973H37.9391V19.9648C37.9391 17.4193 40.0034 15.355 42.5488 15.355H45.0287V8.89692L45.0315 8.89418Z" fill="#006A4E"/>
<path d="M6.50181 8.94066H13.1102L12.547 11.4616C14.45 9.59139 16.3475 8.50594 18.9559 8.50594C24.0414 8.50594 28.1043 12.1998 28.4352 18.5047C28.8672 26.7646 22.8739 32.6758 16.3092 32.6758C12.6564 32.6758 10.4472 31.1556 8.80396 28.8507L6.60844 39.1968H0L6.49907 8.94066H6.50181ZM21.9607 18.9394C21.8021 15.8963 19.7925 14.0699 16.8369 14.0699C13.1841 14.0699 9.98511 17.7228 10.2175 22.1548C10.3734 25.1104 12.5634 27.1118 15.478 27.1118C19.0434 27.1118 22.2068 23.634 21.9607 18.9394Z" fill="#006A4E"/>
<path d="M78.5002 8.89692H83.829L83.1537 11.981C85.1578 9.86755 87.3697 8.41298 90.4101 8.41298C95.6077 8.41298 99.6816 12.1998 100.004 18.3653C100.436 26.6005 94.4977 32.6348 87.8045 32.6348C83.7087 32.6348 81.2671 30.6088 79.7223 28.0114L77.3135 39.1968H71.9847L78.5002 8.89692ZM94.8039 18.7617C94.618 15.1937 92.2994 12.9927 88.9966 12.9927C84.7258 12.9927 80.8515 17.2634 81.1113 22.1986C81.289 25.5889 83.7989 28.0989 87.2768 28.0989C91.6378 28.0989 95.0718 23.9156 94.8039 18.7617Z" fill="#009597"/>
<path d="M118.87 8.89693V22.8301C118.87 25.4249 116.767 27.5274 114.173 27.5274H113.041C110.446 27.5274 108.343 25.4249 108.343 22.8301V8.89693H103.203V22.8192C103.203 28.252 107.608 32.6594 113.043 32.6594H114.175C119.608 32.6594 124.016 28.2547 124.016 22.8192V8.89693H118.875H118.87Z" fill="#009597"/>
<path d="M132.762 0H138.091L131.143 32.1509H125.815L132.762 0Z" fill="#009597"/>
<path d="M136.732 29.1105L139.111 25.4987C141.621 27.3934 144.352 28.3613 146.731 28.3613C149.11 28.3613 150.343 27.3934 150.343 25.8514V25.7639C150.343 23.9594 147.876 23.3414 145.145 22.5048C141.711 21.5369 137.878 20.1261 137.878 15.6776V15.5901C137.878 11.1854 141.533 8.50047 146.157 8.50047C149.063 8.50047 152.235 9.51484 154.701 11.1417L152.587 14.9285C150.343 13.5641 147.964 12.7275 146.025 12.7275C143.956 12.7275 142.766 13.6954 142.766 15.0624V15.1499C142.766 16.8232 145.276 17.5286 148.008 18.409C151.398 19.4671 155.231 21.0065 155.231 25.1925V25.2799C155.231 30.1686 151.445 32.5911 146.6 32.5911C143.297 32.5911 139.641 31.4017 136.735 29.1105H136.732Z" fill="#009597"/>
<path d="M157.495 20.6128V20.5253C157.495 13.8758 162.209 8.41298 168.858 8.41298C176.257 8.41298 180 14.2258 180 20.9217C180 21.4057 179.956 21.8896 179.912 22.42H162.824C163.396 26.2068 166.083 28.3203 169.517 28.3203C172.115 28.3203 173.966 27.3524 175.814 25.5452L178.942 28.3203C176.741 30.9615 173.701 32.6813 169.43 32.6813C162.693 32.6813 157.495 27.7926 157.495 20.6128ZM174.715 18.8957C174.362 15.4616 172.336 12.7739 168.815 12.7739C165.555 12.7739 163.264 15.2839 162.78 18.8957H174.715Z" fill="#009597"/>
<path d="M150.922 43.2242C150.851 43.4019 150.753 43.555 150.633 43.6808C150.512 43.8066 150.373 43.8995 150.217 43.9624C150.061 44.0253 149.9 44.0581 149.736 44.0581C149.506 44.0581 149.317 44.0089 149.167 43.9104C149.017 43.812 148.891 43.6972 148.792 43.5687L148.798 44.0007H148.155V40.1565H148.798V41.6848C148.899 41.5372 149.025 41.4142 149.175 41.313C149.326 41.2118 149.514 41.1626 149.738 41.1626C149.903 41.1626 150.061 41.1954 150.217 41.2583C150.37 41.3212 150.509 41.4142 150.63 41.5399C150.75 41.6657 150.849 41.8161 150.922 41.9965C150.996 42.1743 151.032 42.3821 151.032 42.6117C151.032 42.8414 150.996 43.0492 150.925 43.2269L150.922 43.2242ZM150.324 42.2371C150.283 42.1278 150.225 42.0321 150.151 41.9555C150.08 41.879 149.995 41.8188 149.9 41.7751C149.804 41.7341 149.7 41.7122 149.591 41.7122C149.481 41.7122 149.378 41.7341 149.279 41.7751C149.181 41.8161 149.096 41.879 149.022 41.9555C148.948 42.0348 148.891 42.1278 148.844 42.2371C148.801 42.3465 148.779 42.4695 148.779 42.6063C148.779 42.743 148.801 42.866 148.844 42.9754C148.888 43.0847 148.948 43.1777 149.022 43.257C149.096 43.3363 149.181 43.3964 149.279 43.4374C149.378 43.4785 149.481 43.5003 149.591 43.5003C149.7 43.5003 149.801 43.4785 149.9 43.4374C149.995 43.3964 150.08 43.3363 150.151 43.257C150.222 43.1804 150.28 43.0847 150.324 42.9754C150.365 42.866 150.386 42.7402 150.386 42.6035C150.386 42.4668 150.365 42.3438 150.324 42.2317V42.2371ZM153.036 44.0772C152.978 44.2221 152.921 44.3424 152.861 44.4409C152.801 44.5393 152.735 44.6186 152.661 44.6815C152.587 44.7416 152.505 44.7881 152.418 44.8154C152.33 44.8428 152.229 44.8565 152.117 44.8565C151.983 44.8565 151.866 44.8401 151.762 44.81C151.658 44.7799 151.557 44.7389 151.458 44.6842L151.674 44.2057C151.734 44.2385 151.795 44.2632 151.855 44.2823C151.915 44.3014 151.98 44.3124 152.046 44.3124C152.136 44.3124 152.213 44.2905 152.273 44.244C152.333 44.1975 152.388 44.1155 152.443 43.9925L151.283 41.2173H151.961L152.751 43.2816L153.473 41.2173H154.138L153.03 44.0772H153.036ZM179.904 42.2454V39.76C179.904 39.76 174.696 42.6691 174.122 42.8141C173.64 42.9371 173.43 42.8961 173.411 42.8906C173.463 43.0574 173.818 44.1538 174.037 44.4874C174.135 44.635 174.439 45.0588 175.251 44.7389C176.134 44.4081 179.902 42.2426 179.907 42.2454H179.904ZM172.219 51.3501C172.219 51.3501 172.995 53.1573 173.23 53.7889C173.485 54.3604 174.119 54.3604 174.119 54.3576H177.416L175.199 49.7506L172.216 51.3473L172.219 51.3501ZM154.14 55.8286V57.9749H178.124V55.8286H154.14ZM173.867 46.702L171.39 41.2146H167.787L162.726 50.6556C162.726 50.6556 165.216 50.579 166.808 49.3787C167.21 49.1409 168.347 46.1579 169.386 44.1538L171.005 48.2058C168.558 49.458 166.234 50.5572 164.981 50.9126C161.678 51.8641 157.659 52.4328 156.213 51.1559C154.854 49.9502 157.993 44.9002 163.926 43.7765C164.888 43.5632 165.449 43.6179 165.449 43.6234C165.449 43.6179 165.041 41.8954 164.724 41.5345C164.281 40.9931 163.849 40.881 163.201 40.963C161.916 41.0396 156.454 42.4969 154.296 47.0492C153.093 49.6358 154.693 52.2496 155.729 53.0042C156.21 53.3569 159.313 56.1376 166.488 53.3241C173.558 50.5818 179.893 46.2618 179.896 46.2618V43.3718C179.896 43.3718 177.102 44.9686 173.859 46.7047L173.867 46.702Z" fill="#707173"/>
</g>
<defs>
<clipPath id="clip0_556_2114">
<rect width="180" height="57.9749" fill="white"/>
</clipPath>
</defs>
</svg>
